<svg xmlns="http://www.w3.org/2000/svg" viewBox="0 0 88.418 87.64822"><defs><style>.cls-1,.cls-10,.cls-4,.cls-7,.cls-8,.cls-9{fill:#2b2d42;}.cls-1,.cls-10,.cls-2,.cls-3,.cls-4,.cls-5,.cls-7,.cls-9{stroke:#2b2d42;stroke-miterlimit:10;}.cls-1{stroke-width:0.76433px;}.cls-2,.cls-3,.cls-5{fill:none;}.cls-2{stroke-width:0.7839px;}.cls-3{stroke-width:0.71907px;}.cls-4{stroke-width:0.82877px;}.cls-5{stroke-width:0.36154px;}.cls-6{fill:gray;}.cls-7{stroke-width:0.46856px;}.cls-9{stroke-width:0.38141px;}.cls-10{stroke-width:0.42938px;}</style></defs><g id="Layer_2" data-name="Layer 2"><g id="Layer_1-2" data-name="Layer 1"><rect class="cls-1" x="65.85191" y="36.95321" width="5.77718" height="52.06209" transform="translate(-23.86924 51.82663) rotate(-35.87251)"/><rect class="cls-2" x="0.39472" y="0.39758" width="73.24585" height="41.07738" rx="5.05001"/><rect class="cls-3" x="2.77828" y="2.45145" width="68.47871" height="36.96964" rx="4.63396"/><rect class="cls-4" x="68.57352" y="51.99001" width="9.75677" height="36.24383" rx="0.05174" transform="translate(-27.1523 55.9394) rotate(-35.87251)"/><ellipse class="cls-5" cx="61.00457" cy="30.3375" rx="7.03139" ry="7.21809" transform="translate(-1.4439 57.17835) rotate(-50.00923)"/><path class="cls-6" d="M66.97973,32.29925c1.89-5.86989-5.70129-11.07193-10.29844-6.69919,4.4644-4.93789,12.7669.71432,10.29844,6.69919Z" transform="translate(0 -0.40085)"/><rect class="cls-7" x="59.12771" y="47.32715" width="7.49156" height="15.08793" rx="0.40326" transform="matrix(0.81032, -0.58598, 0.58598, 0.81032, -20.22791, 46.84978)"/><path class="cls-8" d="M2.41287,4.38213a.5003.5003,0,0,0,0-1,.5003.5003,0,0,0,0,1Z" transform="translate(0 -0.40085)"/><path class="cls-8" d="M1.59231,7.71693a1.5009,1.5009,0,0,0,0-3,1.5009,1.5009,0,0,0,0,3Z" transform="translate(0 -0.40085)"/><path class="cls-8" d="M1.59231,6.71693a.5003.5003,0,0,0,0-1,.5003.5003,0,0,0,0,1Z" transform="translate(0 -0.40085)"/><path class="cls-8" d="M3.00988,5.3101A2.67289,2.67289,0,0,1,3.8298,3.99027l-.70711-.70711A3.60363,3.60363,0,0,0,2.19,4.6898l-.0504.11944q.43832.14612.28609-.158a2.7111,2.7111,0,0,0-.05482-.477,2.90178,2.90178,0,0,1,.13977-.92689c.171-.5643-.60774-.83937-.91388-.38528a5.7886,5.7886,0,0,0-.87916,2.1046.50046.50046,0,0,0,.96428.26584A7.04437,7.04437,0,0,1,3.61161,2.50178L2.9045,1.79467a2.48872,2.48872,0,0,0-.665,1.91707.50679.50679,0,0,0,.85356.35355,4.43445,4.43445,0,0,1,1.29152-.88343l-.7345-.56465a4.13891,4.13891,0,0,1-.47489.98663l.93173.25236a17.00509,17.00509,0,0,1,.14416-2.26252l-.5.5,6.17181-.28612c.64079-.02971.64443-1.02987,0-1l-6.17181.28612a.51768.51768,0,0,0-.5.5A17.00456,17.00456,0,0,0,3.10691,3.8562a.50416.50416,0,0,0,.93174.25236A5.19081,5.19081,0,0,0,4.61435,2.883c.14671-.45274-.36766-.73293-.7345-.56465A5.22114,5.22114,0,0,0,2.38594,3.35818l.85355.35356a1.51345,1.51345,0,0,1,.37212-1.21.5003.5003,0,0,0-.70711-.70711,8.09482,8.09482,0,0,0-2.18688,3.172l.96428.26584a5.04683,5.04683,0,0,1,.77836-1.86572l-.91388-.38528c-.226.74548-.41847,2.29634.44253,2.74548a.72732.72732,0,0,0,1.01083-.40045A5.3596,5.3596,0,0,1,3.8298,3.99027a.5003.5003,0,0,0-.70711-.70711A3.62922,3.62922,0,0,0,2.0456,5.04426a.50043.50043,0,0,0,.96428.26584Z" transform="translate(0 -0.40085)"/><path class="cls-8" d="M4.67677,3.37918a.87047.87047,0,0,1,.42355-.21488.49627.49627,0,0,0,.35815-.41568.51967.51967,0,0,0-.23871-.4982,5.20051,5.20051,0,0,1-.61143-.56433l-.35356.85355.77486-.012.367-.00567.16312-.00253.12235-.00189q.09661.00411-.029-.01944l-.17937-.17938c-.07476-.10826.02857-.2711.08525-.34136.01918-.02378-.55763.02782-.06947.00029l.35355.85356a3.93293,3.93293,0,0,1,2.633-.90339L8.22373.9961a11.22949,11.22949,0,0,1-2.18248.676.50013.50013,0,0,0,.26583.96428,12.43216,12.43216,0,0,0,2.42137-.77685.50215.50215,0,0,0,.22978-.56465A.51247.51247,0,0,0,8.47609.92784,4.98465,4.98465,0,0,0,5.136,2.12412a.50456.50456,0,0,0,.35355.85355A.976.976,0,0,0,6.34558,2.569a.7003.7003,0,0,0-.18776-.93439,1.62691,1.62691,0,0,0-.92428-.11015l-.97877.01514a.50591.50591,0,0,0-.35355.85355,6.728,6.728,0,0,0,.81382.7207L4.83448,2.2a1.87762,1.87762,0,0,0-.86482.47205c-.4708.44077.23743,1.14683.70711.70711Z" transform="translate(0 -0.40085)"/><path class="cls-8" d="M7.43483,2.67747l2.82186-.07188v-1q-1.969.219-3.94711.33911a.5114.5114,0,0,0-.5.5.50448.50448,0,0,0,.5.5q1.97755-.12,3.94711-.33911a.51493.51493,0,0,0,.5-.5.50559.50559,0,0,0-.5-.5l-2.82186.07188a.50031.50031,0,0,0,0,1Z" transform="translate(0 -0.40085)"/><path class="cls-8" d="M10.82785,2.72683q.09367-.01755.18792-.03174-.13992.018-.03039.00544c.11027-.00739.22007-.021.33054-.02732.18939-.01083.37918-.01355.56884-.01105.414.00545.82714.03831,1.23933.07527a16.32917,16.32917,0,0,0,2.4851.11123,1.01815,1.01815,0,0,0,1-1,1.01282,1.01282,0,0,0-1-1A17.21986,17.21986,0,0,1,13.02853.72894a10.28952,10.28952,0,0,0-2.73236.06933,1.0047,1.0047,0,0,0-.69844,1.23012,1.02745,1.02745,0,0,0,1.23012.69844Z" transform="translate(0 -0.40085)"/><path class="cls-8" d="M16.42743,2.89717l3.43015-.24338a14.81572,14.81572,0,0,1,3.31563-.08706,10.23543,10.23543,0,0,0,3.04944.1227,11.28793,11.28793,0,0,1,3.3516.172c1.25892.21429,1.79988-1.71269.53167-1.92856A13.423,13.423,0,0,0,26.572.6477a16.26123,16.26123,0,0,1-1.62959.16267A10.04653,10.04653,0,0,1,23.47383.60093a15.01941,15.01941,0,0,0-3.35239.03414l-3.694.2621c-1.27654.09058-1.28651,2.09129,0,2Z" transform="translate(0 -0.40085)"/><path class="cls-8" d="M29.85429,2.94767a50.04559,50.04559,0,0,1,11.30138-.02619,1.00617,1.00617,0,0,0,1-1,1.02333,1.02333,0,0,0-1-1A50.04559,50.04559,0,0,0,29.85429.94767a1.03057,1.03057,0,0,0-1,1,1.00625,1.00625,0,0,0,1,1Z" transform="translate(0 -0.40085)"/><path class="cls-8" d="M41.9751,2.86129a75.165,75.165,0,0,1,8.21746.05308,1.00984,1.00984,0,0,0,1-1,1.01822,1.01822,0,0,0-1-1A75.165,75.165,0,0,0,41.9751.86129a1.02121,1.02121,0,0,0-1,1,1.00971,1.00971,0,0,0,1,1Z" transform="translate(0 -0.40085)"/><path class="cls-8" d="M51.22383,2.71409c3.136.02754,6.27279.07809,9.40891.0813,1.51119.00154,2.9943-.26534,4.4989-.28811a12.18956,12.18956,0,0,1,4.46187.97421c1.20567.45458,1.72668-1.478.53168-1.92856A14.17753,14.17753,0,0,0,65.47863.50846c-1.50229-.03477-2.99807.27838-4.50437.28676C57.725.8133,54.473.74263,51.22383.71409a1.0006,1.0006,0,0,0,0,2Z" transform="translate(0 -0.40085)"/><path class="cls-8" d="M69.51208,3.053c.1288.00343.25623.01317.38407.0292l-.26584-.03572a3.66984,3.66984,0,0,1,.53757.116c.08811.02636.1741.05764.26038.08929.13155.04826-.06229-.03627-.08625-.03759a.63125.63125,0,0,1,.1495.07026,3.49634,3.49634,0,0,1,.44885.26754c.13016.09144.0098-.00344-.04787-.04135a1.09616,1.09616,0,0,1,.10615.08756q.10383.08913.20009.18649.08526.08626.1642.17847c.01766.02065.13232.16559.02362.0244-.10509-.13652-.00422-.00347.01829.02854a3.54224,3.54224,0,0,1,.27528.46295c.02.04026.03761.08166.05743.122.051.10362-.09452-.2478-.02807-.06475.03069.08455.06149.16874.08738.255a3.62869,3.62869,0,0,1,.11443.52615l-.03572-.26584c.01146.08928.02.17845.0257.26827a1,1,0,0,0,2,0A4.45579,4.45579,0,0,0,69.51208,1.053a1.00876,1.00876,0,0,0-1,1,1.01976,1.01976,0,0,0,1,1Z" transform="translate(0 -0.40085)"/><path class="cls-8" d="M70.54172,4.45172c.02915.00209.05809.005.08708.00869L70.363,4.42469a1.32675,1.32675,0,0,1,.3126.08624l-.23888-.10081a1.4751,1.4751,0,0,1,.317.18678l-.20239-.15636a1.60347,1.60347,0,0,1,.26189.26213l-.15636-.20238a1.58508,1.58508,0,0,1,.19934.33744l-.10081-.23888a1.44487,1.44487,0,0,1,.09773.35423l-.03572-.26584a1.30213,1.30213,0,0,1,.00007.32491l.03572-.26584L70.85,4.768h1.92856a6.56961,6.56961,0,0,0-.50169-1.01665,1.04858,1.04858,0,0,0-.59763-.45956,1.022,1.022,0,0,0-.77056.1008,1.00936,1.00936,0,0,0-.45956.59764,1.01963,1.01963,0,0,0,.10081.77055,5.11452,5.11452,0,0,1,.3785.72382l-.1008-.23888.02237.054.10081.23888a.75577.75577,0,0,0,.25755.28057.953.953,0,0,0,.60592.21471,1.18611,1.18611,0,0,0,.50472-.13653.75571.75571,0,0,0,.28057-.25756.75321.75321,0,0,0,.179-.34007,2.45207,2.45207,0,0,0,.04567-.54793A2.61452,2.61452,0,0,0,72.73575,4.21a2.78016,2.78016,0,0,0-.20906-.49966,2.84934,2.84934,0,0,0-.3061-.43049,2.21815,2.21815,0,0,0-.63831-.53021,2.40478,2.40478,0,0,0-1.04056-.298,1,1,0,0,0-.7071,1.7071l.20238.15637a.99555.99555,0,0,0,.50472.13653Z" transform="translate(0 -0.40085)"/><path class="cls-8" d="M72.38975,7.61933a1.0006,1.0006,0,0,0,0-2,1.0006,1.0006,0,0,0,0,2Z" transform="translate(0 -0.40085)"/><path class="cls-8" d="M73.19167,6.11151l-.21242-.47646a.7558.7558,0,0,0-.25756-.28057.8981.8981,0,0,0-.73884-.19685.74414.74414,0,0,0-.37179.11867l-.20239.15636a.999.999,0,0,0-.25717.44127l-.03573.26584a.99555.99555,0,0,0,.13653.50472l.21243.47646a.75578.75578,0,0,0,.25756.28057.89806.89806,0,0,0,.73883.19685.74437.74437,0,0,0,.3718-.11867l.20239-.15637a.999.999,0,0,0,.25717-.44126l.03572-.26584a.99535.99535,0,0,0-.13653-.50472Z" transform="translate(0 -0.40085)"/><path class="cls-8" d="M71.44182,7.58957l.0818,11.84493a14.27473,14.27473,0,0,1-.16441,2.28185,16.56679,16.56679,0,0,0,.07349,2.80244l.09966,2.91222a9.5135,9.5135,0,0,1,.01421,3.01729l1.96428.26584-.1191-1.14584-1.96428.26584c.35319,1.487-.17411,3.22583-.11941,4.757.0474,1.32693.853,4.25266-1.10219,4.5192-1.26949.17306-.729,2.10042.53168,1.92856,2.25041-.30679,2.84542-2.6873,2.71279-4.61027a27.70526,27.70526,0,0,1-.11972-3.64451,11.50232,11.50232,0,0,0,.02541-3.4817c-.25465-1.07218-2.08261-.87273-1.96428.26584l.1191,1.14584a1.00523,1.00523,0,0,0,1.96428.26584,7.84194,7.84194,0,0,0,.08215-2.82092l-.09966-2.91221a24.73455,24.73455,0,0,1-.10975-3.00724,19.63251,19.63251,0,0,0,.18075-2.07991l-.0868-12.57013a1.0006,1.0006,0,0,0-2,0Z" transform="translate(0 -0.40085)"/><path class="cls-8" d="M73.34257,29.93829a10.88431,10.88431,0,0,0-.02538-1.33143,1.02778,1.02778,0,0,0-1-1,1.01054,1.01054,0,0,0-.7071.2929l-.15637.20239a.99534.99534,0,0,0-.13653.50471l-.01531.20716a1.02775,1.02775,0,0,0,1,1,1.0105,1.0105,0,0,0,.70711-.29289l.15636-.20239a.99535.99535,0,0,0,.13653-.50472l.01531-.20716h-2a10.88431,10.88431,0,0,1,.02538,1.33143,1.02778,1.02778,0,0,0,1,1,1.01058,1.01058,0,0,0,.70711-.2929,1.07619,1.07619,0,0,0,.29289-.7071Z" transform="translate(0 -0.40085)"/><path class="cls-8" d="M70.73563,37.495c.0101.03666.01813.07236.0247.10982l-.03572-.26584a1.04209,1.04209,0,0,1,.00018.26138l.03572-.26584a1.32576,1.32576,0,0,1-.08173.29178l.10081-.23888a1.78754,1.78754,0,0,1-.22.366l.15637-.20239a7.648,7.648,0,0,1-.57684.61763l-.643.65338a1.03464,1.03464,0,0,0-.2929.70711,1.01762,1.01762,0,0,0,.2929.70711,1.00617,1.00617,0,0,0,.7071.29289,1.036,1.036,0,0,0,.70711-.29289c.37366-.37969.76955-.7469,1.11927-1.14893a3.05959,3.05959,0,0,0,.592-.9647,1.92548,1.92548,0,0,0,.0426-1.15931,1.03516,1.03516,0,0,0-.45956-.59763,1.00016,1.00016,0,0,0-1.469,1.12931Z" transform="translate(0 -0.40085)"/><path class="cls-8" d="M69.5583,41.37306a1.0006,1.0006,0,0,0,0-2,1.0006,1.0006,0,0,0,0,2Z" transform="translate(0 -0.40085)"/><path class="cls-8" d="M69.87314,41.37306a1.0006,1.0006,0,0,0,0-2,1.0006,1.0006,0,0,0,0,2Z" transform="translate(0 -0.40085)"/><path class="cls-8" d="M68.49769,40.46012l.00569.01944-.03572-.26584a.093.093,0,0,1,.00027.01812l.03572-.26583-.00454.017.10081-.23888a.11789.11789,0,0,1-.0125.021l.15637-.20239a.20476.20476,0,0,1-.0296.02875l.20239-.15637a.94732.94732,0,0,1-.09454.05974,1.18558,1.18558,0,0,0-.28362.218,1.2416,1.2416,0,0,0-.21345.29534c-.052.11468-.09726.23221-.14567.34839l.10081-.23888a.41727.41727,0,0,1-.04762.08955l.15636-.20239a.22678.22678,0,0,1-.03476.034l.20239-.15636a.26457.26457,0,0,1-.05522.03156l.23888-.10081a.24989.24989,0,0,1-.05282.01439l.26584-.03573a.1853.1853,0,0,1-.04428.00036l.26584.03572a.13971.13971,0,0,1-.02823-.00754l.23888.10081-.01945-.01109.20238.15637-.01587-.01586.15636.20239a.11352.11352,0,0,1-.01156-.02089l.10081.23887-.00393-.01241a1.11881,1.11881,0,0,0-.45956-.59763.7444.7444,0,0,0-.3718-.11867.75762.75762,0,0,0-.39876.01786l-.23888.10081a1.005,1.005,0,0,0-.35875.35875l-.10081.23888a1.007,1.007,0,0,0,0,.53168,1.09988,1.09988,0,0,0,.28216.485l.00638.00541.20239.15637.01181.00743.00764.00365.23888.10081.0165.00534a.88715.88715,0,0,0,.32185.03756l.26584-.03572.00989-.00164.01656-.0038a1.76192,1.76192,0,0,0,.26849-.11113.30882.30882,0,0,0,.03151-.01617l.0148-.00978c.0618-.04269.15326-.11428.21082-.16279a1.04173,1.04173,0,0,0,.2-.25093.40362.40362,0,0,0,.02118-.03963c.04245-.08874.078-.18127.11564-.27207.0128-.03091.02466-.06218.03764-.093l-.10081.23888a.47811.47811,0,0,1,.05063-.09273l-.15636.20239a.26925.26925,0,0,1,.04208-.04368l-.20239.15636a.782.782,0,0,1,.07753-.04914,2.04888,2.04888,0,0,0,.27222-.20163.89744.89744,0,0,0,.19846-.25214,2.60143,2.60143,0,0,0,.10181-.24165l.00253-.00841q.01216-.06893.01887-.1387a1.31121,1.31121,0,0,0,.01833-.13882,1.08155,1.08155,0,0,0-.50171-.89513.7444.7444,0,0,0-.3718-.11867.75762.75762,0,0,0-.39876.01786l-.23888.10081a1.005,1.005,0,0,0-.35875.35875l-.10081.23888a1.007,1.007,0,0,0,0,.53168Z" transform="translate(0 -0.40085)"/><path class="cls-8" d="M68.25924,39.59189a5.94062,5.94062,0,0,1-.94388.27587,1.11881,1.11881,0,0,0-.59763.45956.74417.74417,0,0,0-.11867.3718.75752.75752,0,0,0,.01786.39876l.10081.23888a1.005,1.005,0,0,0,.35875.35875l.23888.10081a1.00723,1.00723,0,0,0,.53168,0,5.94093,5.94093,0,0,0,.94388-.27587,1.11881,1.11881,0,0,0,.59763-.45956.7443.7443,0,0,0,.11867-.3718.75752.75752,0,0,0-.01786-.39876l-.10081-.23888a1.005,1.005,0,0,0-.35875-.35875l-.23888-.10081a1.007,1.007,0,0,0-.53168,0Z" transform="translate(0 -0.40085)"/><path class="cls-8" d="M66.91379,39.6742a29.23856,29.23856,0,0,1-5.84365.035,8.99206,8.99206,0,0,0-2.64169.14512,6.98986,6.98986,0,0,1-2.66684-.16808c-1.25727-.24659-1.79553,1.68068-.53168,1.92856a9.95751,9.95751,0,0,0,3.09028.27029c.40478-.04829.7965-.15717,1.19846-.21689a5.56721,5.56721,0,0,1,1.34578.02052,30.26633,30.26633,0,0,0,6.04934-.01448,1.02906,1.02906,0,0,0,1-1,1.00667,1.00667,0,0,0-1-1Z" transform="translate(0 -0.40085)"/><path class="cls-8" d="M54.61493,39.63053a72.81875,72.81875,0,0,0-8.19493.26475,1.02661,1.02661,0,0,0-1,1,1.00746,1.00746,0,0,0,1,1,72.81875,72.81875,0,0,1,8.19493-.26475,1.00061,1.00061,0,0,0,0-2Z" transform="translate(0 -0.40085)"/><path class="cls-8" d="M45.10664,39.81884a5.29662,5.29662,0,0,1-1.86995.069,5.78722,5.78722,0,0,0-1.967-.18649,11.94336,11.94336,0,0,1-1.67409.31645,5.4,5.4,0,0,1-1.81247-.2448c-1.23391-.37608-1.76139,1.55376-.53168,1.92855a7.49838,7.49838,0,0,0,4.27141-.00912,1.39958,1.39958,0,0,1,.74208.03374,9.72968,9.72968,0,0,0,1.11417.17723,7.45511,7.45511,0,0,0,2.25925-.156,1.00025,1.00025,0,0,0-.53168-1.92856Z" transform="translate(0 -0.40085)"/><path class="cls-8" d="M36.21423,39.855a38.43042,38.43042,0,0,0-4.00325.05765,18.52344,18.52344,0,0,1-1.94082-.13256c-.63785-.06035-1.23422.15788-1.86014.1377a1,1,0,0,0,0,2c.60783.0196,1.17643-.19339,1.78674-.14486.67618.05376,1.333.14636,2.01422.13972a38.43038,38.43038,0,0,1,4.00325-.05765,1.0073,1.0073,0,0,0,1-1,1.02153,1.02153,0,0,0-1-1Z" transform="translate(0 -0.40085)"/><path class="cls-8" d="M27.47686,39.77816a29.794,29.794,0,0,1-5.23239.04161,9.01887,9.01887,0,0,0-2.40226-.17712c-.34949.05452-.66074.24113-1.004.28689a4.26277,4.26277,0,0,0-1.26337.26594,1.00666,1.00666,0,0,0-.35875,1.36819,1.02547,1.02547,0,0,0,1.36819.35875,1.57172,1.57172,0,0,1,.25393.00712,3.11088,3.11088,0,0,0,.61938-.08073,4.52005,4.52005,0,0,1,.839-.25582,14.75762,14.75762,0,0,1,2.313.26261,31.86643,31.86643,0,0,0,4.86738-.07744,1.02362,1.02362,0,0,0,1-1,1.00861,1.00861,0,0,0-1-1Z" transform="translate(0 -0.40085)"/><path class="cls-8" d="M17.15989,39.70233,7.263,39.88174a1.0006,1.0006,0,0,0,0,2l9.89685-.17941a1.0006,1.0006,0,0,0,0-2Z" transform="translate(0 -0.40085)"/><path class="cls-8" d="M6.13457,39.73926c-.30534.01988-.61111.03945-.91726.03546-.14561-.0019-.28876-.01524-.43386-.02389-.12054-.00718.1565.03556-.03371-.00755-.0848-.01921-.169-.03565-.25276-.05931-.05525-.0156-.10924-.03461-.164-.05177-.257-.08055.16672.08886-.07579-.02841-.10872-.05257-.21622-.10661-.32085-.167q-.15014-.08669-.29281-.18566c-.06254-.04342-.22694-.10824-.02063-.00929a.71777.71777,0,0,1-.1337-.11092,4.23041,4.23041,0,0,1-.48612-.49432c-.10754-.12909-.00577-.06386.0068.012a.949.949,0,0,0-.11864-.16972q-.09495-.1434-.177-.295-.04088-.07541-.07806-.15273c-.06483-.13405-.01307-.07823.00337.01994a3.0366,3.0366,0,0,0-.113-.32238,3.37983,3.37983,0,0,1-.08645-.36563q-.00636-.03364-.01129-.06753-.0179-.11552.01352.09582a.82984.82984,0,0,1-.01437-.20613,1.01639,1.01639,0,0,0-1-1,1.01377,1.01377,0,0,0-1,1,4.77493,4.77493,0,0,0,1.647,3.35985,5.15949,5.15949,0,0,0,1.807,1.04253,6.14543,6.14543,0,0,0,2.25255.15162,1,1,0,0,0,0-2Z" transform="translate(0 -0.40085)"/><path class="cls-8" d="M4.96018,39.22748c-.07341-.04539-.14392-.09372-.21284-.14564l.20238.15636a3.22238,3.22238,0,0,1-.539-.55085l.15636.20239a10.72056,10.72056,0,0,1-.7246-1.14721l-.81165-1.39735a1.01186,1.01186,0,0,0-1.36819-.35875,1.0185,1.0185,0,0,0-.35875,1.36819c.375.64557.74115,1.2973,1.12738,1.93622a4.77165,4.77165,0,0,0,1.51947,1.66359,1.0099,1.0099,0,0,0,1.36818-.35876,1.02038,1.02038,0,0,0-.35875-1.36819Z" transform="translate(0 -0.40085)"/><path class="cls-8" d="M2.62833,35.8652a59.25531,59.25531,0,0,1,.00995-9.31228,1.00836,1.00836,0,0,0-1-1,1.02,1.02,0,0,0-1,1A59.25531,59.25531,0,0,0,.62833,35.8652a1.02506,1.02506,0,0,0,1,1,1.008,1.008,0,0,0,1-1Z" transform="translate(0 -0.40085)"/><path class="cls-8" d="M2.63876,26.55276a18.83253,18.83253,0,0,0-.14055-2.402c-.05629-.45266-.12732-.90188-.201-1.35186-.01447-.08839-.0298-.17681-.04122-.26565.02958.23017-.00257-.06448-.00449-.08893-.007-.08845-.01146-.17721-.012-.266-.00028-.04428.02755-.41273-.00508-.17587a1.10353,1.10353,0,0,0-.10081-.77056,1.01919,1.01919,0,0,0-.59763-.45956,1.01083,1.01083,0,0,0-1.23012.69844,5.4288,5.4288,0,0,0,.02161,1.59411c.02577.17729.05634.35376.08585.53046.02015.12069.03975.24144.05786.36246.00669.04473.04259.31442.01541.101a19.10529,19.10529,0,0,1,.15219,2.49388,1.01084,1.01084,0,0,0,1,1,1.01776,1.01776,0,0,0,1-1Z" transform="translate(0 -0.40085)"/><path class="cls-8" d="M2.69841,22.86555,2.55152,7.573a1.0006,1.0006,0,0,0-2,0L.69841,22.86555a1.0006,1.0006,0,0,0,2,0Z" transform="translate(0 -0.40085)"/><rect class="cls-9" x="49.05471" y="41.39424" width="9.73074" height="0.50011" rx="0.0871"/><rect class="cls-10" x="50.25239" y="41.04646" width="2.82739" height="2.25748" transform="matrix(0.81032, -0.58598, 0.58598, 0.81032, -14.9141, 37.87431)"/></g></g></svg>