<svg xmlns="http://www.w3.org/2000/svg" viewBox="0 0 383.89886 1134.63052"><defs><style>.cls-1,.cls-2,.cls-3,.cls-4,.cls-5{fill:#006837;}.cls-1,.cls-10,.cls-11,.cls-12,.cls-13,.cls-14,.cls-15,.cls-2,.cls-3,.cls-4,.cls-5,.cls-7,.cls-8,.cls-9{stroke:#000;}.cls-1,.cls-10,.cls-11,.cls-12,.cls-13,.cls-14,.cls-15,.cls-2,.cls-3,.cls-4,.cls-5,.cls-6,.cls-7,.cls-8,.cls-9{stroke-miterlimit:10;}.cls-1{stroke-width:1.2189px;}.cls-2{stroke-width:0.67368px;}.cls-3{stroke-width:0.82299px;}.cls-5{stroke-width:0.75814px;}.cls-6{fill:#603813;stroke:#603813;stroke-width:15px;}.cls-7{fill:#c9f9ff;}.cls-7,.cls-9{stroke-width:2px;}.cls-11,.cls-8{fill:none;}.cls-16,.cls-9{fill:#fe6d73;}.cls-10{fill:#5dfdcb;stroke-width:1.79661px;}.cls-11{stroke-width:0.89831px;}.cls-12,.cls-13,.cls-14,.cls-15{fill:#fcee21;}.cls-12{stroke-width:1.23179px;}.cls-13{stroke-width:1.24746px;}.cls-14{stroke-width:0.99px;}.cls-15{stroke-width:0.96733px;}</style></defs><g id="Layer_2" data-name="Layer 2"><g id="Layer_1-2" data-name="Layer 1"><path d="M252.93476,3.68424l-.15482-.04908-.08913-.02826a1.84338,1.84338,0,0,0,2.527,1.12653"/><polygon points="263.943 18.871 257.417 20.744 252.424 20.063 247.714 18.871 244.083 16.772 241.877 15.098 239.089 12.516 235.344 4.912 235.795 3.834 263.943 18.871"/><path class="cls-1" d="M153.0014,712.03027s15.62713-53.63906,29.56484-65.04264,19.42832-7.18,29.14248,0l3.29154,2.45594,1.16028-1.98905,10.01131,7.09511,2.59284-2.49311,5.48485,3.19118.3989-1.097,6.38237,3.989v-3.49036l2.79229,1.097,9.47383,7.18016,1.1967-2.79228,9.67328,6.18292s-.89752-2.99174,0-2.49312,5.086,2.892,5.086,2.892l3.39064,2.79228.79779-1.39614,9.17466,6.38237.59835-1.89476,15.05841,8.87548v-1.83659l13.17877,5.02,6.45028,3.44014.71509-1.39756,2.61755,1.82758,1.27592.09091.608.81014,1.1777-.15361,1.58733.87047s40.05933,10.01887,39.9192,6.53681c0,0-43.84342-28.7723-46.17278-37.20238l2.46925-1.15091-5.19993-3.48169-5.76228-4.31371,1.96081-.63026s-6.30259-3.64149-8.40345-4.69192l3.862-1.59488L300.57,639.42622v-1.67665l-10.037-4.15165s-.65241-1.30481,0-1.30481a6.88715,6.88715,0,0,0,2.13513-.88964,44.75059,44.75059,0,0,0-10.08259-3.38063l2.78754-2.25375-12.11224-4.71755s.77838-2.80217,1.86811-3.347a17.60343,17.60343,0,0,0-7.706-2.02378l3.2692-3.11353-10.27462-2.56865.31135-2.88-6.84974-1.55676.31135-3.73623h-9.02922s-1.40108-3.42487,0-4.59244l-8.4815-.31089-1.79312-3.26966-.85621,1.16757-6.84975-1.16757v-2.80217l-7.23575-.24842s-1.71563-2.00888-.62589-3.02078c0,0-7.718,1.29658-10.98117-.3636,0,0-8.0472,1.247-8.81765,1.247s-21.41434,12.43229-7.47183,28.47932c0,0,3.28832,4.07753-2.3676,11.18031,0,0-12.7587-5.52439-13.811-5.12979s-8.54965-4.60366,8.94425,8.81271c0,0-1.70993,6.83972-3.15679,4.34059l-3.28833,8.28659s-10.65418,9.99651-22.62368,41.56444"/><path class="cls-1" d="M184.81407,631.80709s10.09173,6.29645,18.26493,9.52758"/><path class="cls-1" d="M191.40755,629.28953l8.45988-6.58138s5.71541-32.04093,8.65971-29.09662"/><path class="cls-1" d="M193.94654,604.00318c-1.41785,9.00609,5.92089,18.705,5.92089,18.705l6.235-1.03917,6.38347.73441,4.00818-1.77357,8.83763.99727,8.47327.397,15.25079,1.71268"/><path class="cls-1" d="M233.805,622.02411s6.07032-11.43956,10.40017-12.65191"/><path class="cls-1" d="M216.49407,620.62982s4.67625-15.24109,14.8947-16.62664"/><path class="cls-1" d="M206.10242,621.669s8.31332-20.09052,16.973-24.76677"/><path class="cls-1" d="M261.35137,638.46882c-8.83291-.51958-10.56485,1.21236-10.56485,1.21236l-19.39775-4.32986c-15.39907-5.61424-31.43842-3.7015-33.72289-3.38845a.07651.07651,0,0,0-.01943.14768c3.81932,1.603,48.84452,20.5439,47.53946,22.05636"/><path class="cls-1" d="M250.78652,639.68118s110.45553,61.98165,115.016,57.0024"/><path class="cls-1" d="M210.17516,637.44083a17.16118,17.16118,0,0,1,12.90029-.87"/><path class="cls-1" d="M229.13725,634.58853s6.8435-4.75745,12.93075-2.78144"/><path class="cls-1" d="M197.77293,632.164s-8.44955-4.64025-8.82016-4.12969"/><path class="cls-2" d="M150.48186,310.69685c.4929,4.088,47.45364-16.642,47.17018-28.20059-.15171-6.18681-4.72852-11.75108-5.83084-13.09122-6.40074-7.78175-17.22882-11.91557-24.31666-9.78245C156.536,262.92363,147.1953,283.43864,150.48186,310.69685Z"/><path class="cls-3" d="M363.29391,279.50772c3.695,3.91184-66.14,11.64385-77.73437,1.20218-6.206-5.58894-7.20009-13.09052-7.43952-14.89725-1.39032-10.49109,5.54494-20.20439,15.06123-22.25725C307.90786,240.37857,338.65611,253.42431,363.29391,279.50772Z"/><path class="cls-3" d="M324.71225,312.90119c2.67289,4.67027-67.02458-4.21638-75.84219-17.08917-4.71967-6.89021-3.92406-14.41543-3.73244-16.22786,1.11265-10.52416,10.13529-18.33684,19.86754-18.09714C280.066,261.85794,306.89,281.76067,324.71225,312.90119Z"/><path class="cls-3" d="M73.425,316.403c-5.36711-.38708,40.89-53.27364,56.49257-53.41037,8.35135-.07319,14.15292,4.78517,15.55022,5.95529,8.11362,6.79449,9.56418,18.64108,3.936,26.58446C140.694,307.82488,109.2119,318.98392,73.425,316.403Z"/><path class="cls-3" d="M37.13572,283.91305c-5.27467-1.06472,47.31709-47.65675,62.811-45.8133,8.29317.9867,13.43163,6.5417,14.66923,7.87961,7.18625,7.76876,7.12245,19.70367.53214,26.869C104.94947,283.9368,72.30622,291.01245,37.13572,283.91305Z"/><path class="cls-2" d="M247.80992,314.92335c-.4929,4.088-47.45363-16.642-47.17017-28.20059.15171-6.18681,4.72852-11.75108,5.83084-13.09122,6.40073-7.78174,17.22882-11.91556,24.31666-9.78244C241.7558,267.15013,251.09649,287.66515,247.80992,314.92335Z"/><path class="cls-4" d="M206.6731,1134.09712c59.63965-183.53815,35.12989-289.02753,0-352-22.60064-40.51309-46.4768-57.8356-51-103-10.10571-100.90622,97.13361-133.678,86-233-5.10992-45.58539-31.14068-69.37782-36-153a431.11675,431.11675,0,0,1,0-50l-15.483-1.38032a431.11675,431.11675,0,0,0,0,50c4.85932,83.62218,30.89008,107.41461,36,153,11.13361,99.322-96.10571,132.09378-86,233,4.5232,45.1644,28.39936,62.48691,51,103,35.12988,62.97248,59.63965,168.46186,0,352Z"/><path class="cls-5" d="M179.53347,259.00029c2.90122-6.73487,9.49768-10.0559,11.08643-10.85577,9.22527-4.64454,20.79572-2.53475,26.20686,4.18709"/><ellipse class="cls-6" cx="198.89382" cy="233.09712" rx="112" ry="10"/><polygon class="cls-7" points="280.397 236.223 241.418 235.411 241.416 24.426 280.397 43.277 280.397 236.223"/><polygon class="cls-7" points="200.385 236.223 219.051 235.834 239.365 235.411 239.366 54.426 239.366 24.426 219.051 34.25 200.385 43.277 200.385 70.841 200.385 236.223"/><polyline class="cls-8" points="280.397 69.738 240.436 52.911 200.385 69.738"/><polyline class="cls-8" points="200.385 97.241 240.436 82.911 280.397 97.241"/><polyline class="cls-8" points="200.385 124.85 240.584 112.954 279.417 124.453"/><polyline class="cls-8" points="279.417 152.016 240.391 142.9 201.373 152.016"/><polyline class="cls-8" points="279.417 179.58 240.395 172.904 201.38 179.58"/><polyline class="cls-8" points="279.417 207.144 240.436 202.911 200.385 207.26"/><line class="cls-8" x1="219.87558" y1="34.61367" x2="219.87558" y2="234.8958"/><line class="cls-8" x1="260.75113" y1="233.3958" x2="260.90596" y2="33.85105"/><polygon class="cls-9" points="173.734 277.085 134.754 276.273 134.753 65.288 173.734 84.139 173.734 277.085"/><polygon class="cls-9" points="93.721 277.085 112.387 276.696 132.701 276.273 132.702 95.288 132.702 65.288 112.387 75.113 93.721 84.139 93.721 111.703 93.721 277.085"/><polyline class="cls-8" points="173.734 110.6 133.772 93.773 93.721 110.6"/><polyline class="cls-8" points="93.721 138.103 133.772 123.773 173.734 138.103"/><polyline class="cls-8" points="93.721 165.712 133.92 153.816 172.753 165.315"/><polyline class="cls-8" points="172.753 192.878 133.727 183.762 94.709 192.878"/><polyline class="cls-8" points="172.753 220.442 133.731 213.766 94.716 220.442"/><line class="cls-8" x1="113.21187" y1="75.4758" x2="113.21187" y2="275.75793"/><line class="cls-8" x1="154.08741" y1="274.25793" x2="154.24224" y2="74.71319"/><polygon class="cls-10" points="228.413 275.976 189.433 275.321 189.432 105.066 228.413 120.278 228.413 275.976"/><polygon class="cls-10" points="148.401 275.976 167.066 275.663 187.38 275.321 187.381 129.275 187.382 105.066 167.066 112.994 148.401 120.278 148.401 142.521 148.401 275.976"/><polyline class="cls-11" points="228.413 141.631 188.451 128.052 148.401 141.631"/><polyline class="cls-11" points="148.401 163.824 188.451 152.261 228.413 163.824"/><polyline class="cls-11" points="148.401 186.103 188.599 176.504 227.432 185.783"/><polyline class="cls-11" points="227.432 208.026 188.407 200.669 149.388 208.026"/><polyline class="cls-11" points="227.432 230.268 188.41 224.881 149.395 230.268"/><line class="cls-11" x1="167.89102" y1="113.28729" x2="167.89102" y2="274.90538"/><line class="cls-11" x1="208.76657" y1="273.69495" x2="208.9214" y2="112.6719"/><path class="cls-12" d="M267.9229,236.96511s-24.39323,34.85061,70.82894,41.77361,18.22956-76.16658-49.75739-51.72059l-21.07155,9.947"/><path class="cls-13" d="M116.109,240.321s24.29382,35.6533-70.9868,43.04828S27.12346,205.33887,95.06036,230.189Z"/><path class="cls-14" d="M175.46567,258.01581s3.09927,49.90844-80.59109,52.22178,22.78286-106.411,67.81957-67.53823Z"/><path class="cls-14" d="M228.45853,237.2452c45.03672-38.87272,151.51,69.85158,67.81958,67.53823S215.687,252.56166,215.687,252.56166Z"/><path class="cls-1" d="M231.38877,474.25918s-15.62712-53.63906-29.56483-65.04264-19.42832-7.18-29.14248,0l-3.29155,2.45595-1.16028-1.98906-10.01131,7.09512-2.59284-2.49312-5.48485,3.19119-.39889-1.097-6.38238,3.989v-3.49036l-2.79228,1.097-9.47384,7.18017-1.19669-2.79229-9.67328,6.18292s.89752-2.99173,0-2.49311-5.086,2.892-5.086,2.892l-3.39063,2.79229-.7978-1.39614-9.17466,6.38237-.59835-1.89477-15.05841,8.87549v-1.8366l-13.17877,5.02-6.45028,3.44015-.71509-1.39756-2.61755,1.82758-1.27592.09091-.608.81014-1.1777-.15361-1.58733.87047s-40.05933,10.01887-39.9192,6.5368c0,0,43.84342-28.7723,46.17279-37.20237l-2.46926-1.15091,5.19993-3.48169,5.76228-4.31371-1.96081-.63026s6.30259-3.6415,8.40346-4.69193l-3.862-1.59488,7.98612-4.19161v-1.67664l10.037-4.15166s.6524-1.3048,0-1.3048a6.88723,6.88723,0,0,1-2.13514-.88964,44.7508,44.7508,0,0,1,10.08259-3.38063L99.01713,387.998l12.11225-4.71754s-.77838-2.80217-1.86812-3.347a17.60337,17.60337,0,0,1,7.706-2.02379l-3.2692-3.11352,10.27462-2.56866-.31135-2.88,6.84975-1.55676-.31135-3.73623h9.02921s1.40108-3.42487,0-4.59244l8.48151-.3109,1.79311-3.26965.85622,1.16757,6.84974-1.16757V353.0793l7.23576-.24843s1.71562-2.00888.62589-3.02077c0,0,7.718,1.29658,10.98116-.36361,0,0,8.04721,1.247,8.81766,1.247s21.41433,12.43229,7.47183,28.47932c0,0-3.28833,4.07752,2.36759,11.18031,0,0,12.75871-5.52439,13.811-5.12979s8.54965-4.60366-8.94424,8.81271c0,0,1.70992,6.83972,3.15679,4.34059l3.28832,8.28658s10.65418,9.99651,22.62369,41.56444"/><path class="cls-1" d="M199.57611,394.036s-10.09174,6.29645-18.26494,9.52758"/><path class="cls-1" d="M192.98263,391.51844l-8.45989-6.58138s-5.71541-32.04092-8.65971-29.09662"/><path class="cls-1" d="M190.44364,366.23209c1.41784,9.0061-5.9209,18.705-5.9209,18.705l-6.235-1.03916-6.38347.7344-4.00818-1.77357-8.83763.99727-8.47326.397-15.2508,1.71268"/><path class="cls-1" d="M150.58521,384.253s-6.07032-11.43956-10.40018-12.65192"/><path class="cls-1" d="M167.8961,382.85873s-4.67624-15.24109-14.8947-16.62664"/><path class="cls-1" d="M178.28775,383.8979s-8.31332-20.09053-16.973-24.76677"/><path class="cls-1" d="M123.03881,400.69773c8.8329-.51958,10.56484,1.21236,10.56484,1.21236l19.39775-4.32985c15.39907-5.61425,31.43842-3.7015,33.72289-3.38846a.07652.07652,0,0,1,.01944.14769c-3.81933,1.603-48.84452,20.54389-47.53947,22.05636"/><path class="cls-1" d="M133.60365,401.91009s-110.45552,61.98165-115.016,57.0024"/><path class="cls-1" d="M174.215,399.66975a17.16116,17.16116,0,0,0-12.9003-.87"/><path class="cls-1" d="M155.25293,396.81745s-6.84351-4.75746-12.93076-2.78144"/><path class="cls-1" d="M186.61724,394.39287s8.44955-4.64025,8.82016-4.1297"/><path class="cls-15" d="M204.78458,311.37349c-4.47877,3.85628-12.25572,3.67944-16.52268-.3247-26.01776-24.41527-34.0339-49.22421-22.91452-60.8874,5.95168-6.24277,17.48014-8.81841,20.25675-9.43875,16.12275-3.6021,35.01818-.432,42.89664,6.60713C240.69283,258.2229,234.64817,285.66054,204.78458,311.37349Z"/><path class="cls-1" d="M226.45044,1032.79968s-15.62713-53.63905-29.56484-65.04263-19.42832-7.18-29.14248,0l-3.29154,2.45594-1.16028-1.98906L153.28,975.31905l-2.59284-2.49312-5.48485,3.19119-.3989-1.097-6.38237,3.989v-3.49036l-2.79229,1.097-9.47383,7.18017-1.19669-2.79229-9.67329,6.18293s.89752-2.99174,0-2.49312-5.08595,2.892-5.08595,2.892l-3.39063,2.79229-.7978-1.39614L96.83589,995.264l-.59835-1.89477-15.05841,8.87549v-1.83659l-13.17877,5.02-6.45028,3.44015-.71509-1.39756-2.61755,1.82758-1.27592.09091-.608.81014-1.1777-.15361-1.58733.87047s-40.05933,10.01887-39.9192,6.5368c0,0,43.84342-28.77229,46.17278-37.20237l-2.46925-1.15091,5.19993-3.48169,5.76228-4.31371-1.96081-.63026s6.30259-3.6415,8.40346-4.69193l-3.862-1.59487,7.98613-4.19162V958.519l10.037-4.15165s.6524-1.30481,0-1.30481a6.88712,6.88712,0,0,1-2.13514-.88964,44.75059,44.75059,0,0,1,10.08259-3.38063L94.0788,946.5385l12.11225-4.71754s-.77839-2.80217-1.86812-3.347a17.60337,17.60337,0,0,1,7.706-2.02379l-3.2692-3.11352,10.27462-2.56865-.31135-2.88,6.84975-1.55676-.31136-3.73623h9.02922s1.40108-3.42487,0-4.59244l8.48151-.31089,1.79311-3.26966.85622,1.16757,6.84974-1.16757V911.6198l7.23576-.24842s1.71562-2.00888.62588-3.02078c0,0,7.718,1.29658,10.98117-.3636,0,0,8.0472,1.247,8.81765,1.247s21.41434,12.43229,7.47184,28.47932c0,0-3.28833,4.07752,2.36759,11.18031,0,0,12.75871-5.52439,13.811-5.12979s8.54965-4.60366-8.94425,8.81271c0,0,1.70993,6.83972,3.1568,4.34059l3.28832,8.28658s10.65418,9.99651,22.62368,41.56444"/><path class="cls-1" d="M194.63777,952.57651s-10.09173,6.29645-18.26493,9.52758"/><path class="cls-1" d="M188.0443,950.05894l-8.45989-6.58138s-5.71541-32.04092-8.65971-29.09662"/><path class="cls-1" d="M185.50531,924.77259c1.41784,9.0061-5.9209,18.705-5.9209,18.705l-6.235-1.03916-6.38347.7344-4.00818-1.77357-8.83763.99727-8.47326.397-15.2508,1.71268"/><path class="cls-1" d="M145.64688,942.79353s-6.07033-11.43956-10.40018-12.65192"/><path class="cls-1" d="M162.95777,941.39923s-4.67624-15.24108-14.8947-16.62664"/><path class="cls-1" d="M173.34942,942.4384s-8.31332-20.09053-16.973-24.76677"/><path class="cls-1" d="M118.10048,959.23823c8.8329-.51958,10.56484,1.21236,10.56484,1.21236l19.39775-4.32985c15.39907-5.61425,31.43842-3.7015,33.72289-3.38846a.07652.07652,0,0,1,.01944.14769c-3.81933,1.603-48.84452,20.54389-47.53947,22.05636"/><path class="cls-1" d="M128.66532,960.45059s-110.45553,61.98166-115.016,57.0024"/><path class="cls-1" d="M169.27669,958.21025a17.16116,17.16116,0,0,0-12.9003-.87"/><path class="cls-1" d="M150.31459,955.358s-6.8435-4.75746-12.93075-2.78144"/><path class="cls-1" d="M181.67891,952.93337s8.44955-4.64025,8.82016-4.1297"/><path class="cls-16" d="M235.79523,3.83374C236.10272.98506,243.025,1.77192,251.19349,5.562c8.09964,3.75812,14.3703,9.05569,14.06749,11.86105s-7.06815,2.09087-15.17246-1.6241C241.91533,12.05237,235.48775,6.68243,235.79523,3.83374Z"/><polygon points="252.424 20.063 250.892 19.609 249.644 22.219 246.409 22.219 243.799 18.247 244.083 16.772 243.061 15.977 241.926 15.977 241.926 16.488 242.903 16.788 242.607 17.282 242.607 17.916 240.962 18.247 240.962 18.814 242.04 22.911 243.288 22.911 243.629 24.426 249.927 24.426 251.728 24.426 252.424 20.063"/><polyline points="250.528 25.283 249.927 24.426 245.558 24.426 244.934 25.283 250.528 27.723"/><polyline points="254.367 17.269 254.83 4.603 254.83 3.977 253.953 3.699 253.422 3.278 241.755 10.274 241.416 10.014 253.059 2.261 253.359 1.743 253.958 1.743 254.694 0.327 254.83 0 255.117 0.092 255.117 0.354 256.301 0.899 256.437 0.599 256.631 0.705 255.777 2.492 255.878 2.572 255.878 2.482 256.204 2.532 256.578 2.829 256.482 3.157 256.275 3.092 256.085 3.555 256.045 3.713 257.296 13.632 256.988 13.771 255.519 4.518 254.65 17.269"/><polyline points="246.783 7.812 247.002 8.233 253.422 3.278 253.218 3.179"/><path d="M252.93476,3.68424c-.01828.09948.42322.38632.98573.64052.56209.254,1.03225.37926,1.0505.27992s-.42228-.38575-.98434-.63989C253.42416,3.71045,252.95305,3.58477,252.93476,3.68424Z"/><polyline points="253.422 3.741 253.588 3.41 253.798 3.576 253.61 3.834"/><polyline points="253.987 3.965 254.066 3.718 254.176 3.769 254.081 4.008"/><polyline points="254.387 4.325 254.53 3.863 254.387 3.818 254.245 4.292"/><polyline points="254.53 4.273 254.652 3.863 254.53 3.863 254.412 4.244"/></g></g></svg>