<svg xmlns="http://www.w3.org/2000/svg" viewBox="0 0 383.89886 1134.63052"><defs><style>.cls-1,.cls-2,.cls-3,.cls-4,.cls-5{fill:#006837;}.cls-1,.cls-10,.cls-11,.cls-12,.cls-13,.cls-14,.cls-15,.cls-2,.cls-3,.cls-4,.cls-5,.cls-7,.cls-8,.cls-9{stroke:#000;}.cls-1,.cls-10,.cls-11,.cls-12,.cls-13,.cls-14,.cls-15,.cls-2,.cls-3,.cls-4,.cls-5,.cls-6,.cls-7,.cls-8,.cls-9{stroke-miterlimit:10;}.cls-1{stroke-width:1.2189px;}.cls-2{stroke-width:0.67368px;}.cls-3{stroke-width:0.82299px;}.cls-5{stroke-width:0.75814px;}.cls-6{fill:#603813;stroke:#603813;stroke-width:15px;}.cls-7{fill:#c9f9ff;}.cls-7,.cls-9{stroke-width:2px;}.cls-11,.cls-8{fill:none;}.cls-16,.cls-9{fill:#fe6d73;}.cls-10{fill:#5dfdcb;stroke-width:1.79661px;}.cls-11{stroke-width:0.89831px;}.cls-12,.cls-13,.cls-14,.cls-15{fill:#fcee21;}.cls-12{stroke-width:1.23179px;}.cls-13{stroke-width:1.24746px;}.cls-14{stroke-width:0.99px;}.cls-15{stroke-width:0.96733px;}</style></defs><g id="Layer_2" data-name="Layer 2"><g id="Layer_1-2" data-name="Layer 1"><path d="M130.9641,3.68424l.15482-.04908.08913-.02826a1.84338,1.84338,0,0,1-2.527,1.12653"/><polygon points="119.956 18.871 126.481 20.744 131.475 20.063 136.185 18.871 139.816 16.772 142.022 15.098 144.81 12.516 148.555 4.912 148.104 3.834 119.956 18.871"/><path class="cls-1" d="M230.89746,712.03027s-15.62713-53.63906-29.56484-65.04264-19.42832-7.18-29.14248,0l-3.29154,2.45594-1.16028-1.98905L157.727,654.54963l-2.59284-2.49311-5.48485,3.19118-.3989-1.097-6.38237,3.989v-3.49036l-2.79229,1.097-9.47383,7.18016-1.1967-2.79228-9.67328,6.18292s.89752-2.99174,0-2.49312-5.08595,2.892-5.08595,2.892l-3.39064,2.79228-.79779-1.39614-9.17466,6.38237-.59835-1.89476-15.05841,8.87548v-1.83659l-13.17877,5.02-6.45028,3.44014-.71509-1.39756-2.61755,1.82758-1.27592.09091-.608.81014-1.1777-.15361-1.58733.87047s-40.05933,10.01887-39.9192,6.53681c0,0,43.84342-28.7723,46.17278-37.20238l-2.46925-1.15091,5.19993-3.48169,5.76228-4.31371-1.96081-.63026s6.30259-3.64149,8.40345-4.69192l-3.862-1.59488,7.98613-4.19161v-1.67665l10.037-4.15165s.65241-1.30481,0-1.30481a6.88715,6.88715,0,0,1-2.13513-.88964,44.75059,44.75059,0,0,1,10.08259-3.38063l-2.78754-2.25375,12.11224-4.71755s-.77838-2.80217-1.86811-3.347a17.60343,17.60343,0,0,1,7.706-2.02378l-3.2692-3.11353,10.27462-2.56865-.31135-2.88,6.84974-1.55676-.31135-3.73623h9.02921s1.40109-3.42487,0-4.59244l8.48151-.31089,1.79312-3.26966.85621,1.16757,6.84975-1.16757v-2.80217l7.23575-.24842s1.71563-2.00888.62589-3.02078c0,0,7.718,1.29658,10.98117-.3636,0,0,8.0472,1.247,8.81765,1.247s21.41434,12.43229,7.47183,28.47932c0,0-3.28832,4.07753,2.3676,11.18031,0,0,12.7587-5.52439,13.811-5.12979s8.54965-4.60366-8.94425,8.81271c0,0,1.70993,6.83972,3.15679,4.34059l3.28833,8.28659s10.65418,9.99651,22.62368,41.56444"/><path class="cls-1" d="M199.08479,631.80709s-10.09173,6.29645-18.26493,9.52758"/><path class="cls-1" d="M192.49131,629.28953l-8.45988-6.58138s-5.71541-32.04093-8.65971-29.09662"/><path class="cls-1" d="M189.95232,604.00318c1.41785,9.00609-5.92089,18.705-5.92089,18.705l-6.235-1.03917-6.38347.73441-4.00818-1.77357-8.83763.99727-8.47327.397-15.25079,1.71268"/><path class="cls-1" d="M150.09389,622.02411s-6.07032-11.43956-10.40017-12.65191"/><path class="cls-1" d="M167.40479,620.62982s-4.67625-15.24109-14.8947-16.62664"/><path class="cls-1" d="M177.79644,621.669s-8.31332-20.09052-16.973-24.76677"/><path class="cls-1" d="M122.54749,638.46882c8.83291-.51958,10.56485,1.21236,10.56485,1.21236l19.39775-4.32986c15.39907-5.61424,31.43842-3.7015,33.72289-3.38845a.07651.07651,0,0,1,.01943.14768c-3.81932,1.603-48.84452,20.5439-47.53947,22.05636"/><path class="cls-1" d="M133.11234,639.68118s-110.45553,61.98165-115.016,57.0024"/><path class="cls-1" d="M173.7237,637.44083a17.16118,17.16118,0,0,0-12.90029-.87"/><path class="cls-1" d="M154.76161,634.58853s-6.84351-4.75745-12.93075-2.78144"/><path class="cls-1" d="M186.12593,632.164s8.44954-4.64025,8.82016-4.12969"/><path class="cls-2" d="M233.417,310.69685c-.49291,4.088-47.45364-16.642-47.17018-28.20059.15171-6.18681,4.72852-11.75108,5.83084-13.09122,6.40074-7.78175,17.22882-11.91557,24.31666-9.78245C227.36287,262.92363,236.70356,283.43864,233.417,310.69685Z"/><path class="cls-3" d="M20.605,279.50772c-3.695,3.91184,66.14,11.64385,77.73437,1.20218,6.206-5.58894,7.20009-13.09052,7.43952-14.89725,1.39032-10.49109-5.54494-20.20439-15.06123-22.25725C75.991,240.37857,45.24275,253.42431,20.605,279.50772Z"/><path class="cls-3" d="M59.18661,312.90119c-2.67289,4.67027,67.02458-4.21638,75.84219-17.08917,4.71967-6.89021,3.92406-14.41543,3.73244-16.22786-1.11265-10.52416-10.1353-18.33684-19.86754-18.09714C103.8329,261.85794,77.0089,281.76067,59.18661,312.90119Z"/><path class="cls-3" d="M310.47389,316.403c5.36712-.38708-40.89-53.27364-56.49256-53.41037-8.35135-.07319-14.15292,4.78517-15.55022,5.95529-8.11362,6.79449-9.56418,18.64108-3.936,26.58446C243.20488,307.82488,274.687,318.98392,310.47389,316.403Z"/><path class="cls-3" d="M346.76314,283.91305c5.27467-1.06472-47.31709-47.65675-62.811-45.8133-8.29317.9867-13.43164,6.5417-14.66923,7.87961-7.18625,7.76876-7.12245,19.70367-.53214,26.869C278.94939,283.9368,311.59264,291.01245,346.76314,283.91305Z"/><path class="cls-2" d="M136.08894,314.92335c.4929,4.088,47.45363-16.642,47.17017-28.20059-.15171-6.18681-4.72852-11.75108-5.83084-13.09122-6.40074-7.78174-17.22882-11.91556-24.31666-9.78244C142.14306,267.15013,132.80237,287.66515,136.08894,314.92335Z"/><path class="cls-4" d="M177.22576,1134.09712c-59.63965-183.53815-35.12989-289.02753,0-352,22.60064-40.51309,46.4768-57.8356,51-103,10.10571-100.90622-97.13361-133.678-86-233,5.10992-45.58539,31.14068-69.37782,36-153a431.11675,431.11675,0,0,0,0-50l15.483-1.38032a431.11675,431.11675,0,0,1,0,50c-4.85932,83.62218-30.89008,107.41461-36,153-11.13361,99.322,96.10571,132.09378,86,233-4.5232,45.1644-28.39936,62.48691-51,103-35.12989,62.97248-59.63965,168.46186,0,352Z"/><path class="cls-5" d="M204.36539,259.00029c-2.90122-6.73487-9.49768-10.0559-11.08643-10.85577-9.22527-4.64454-20.79572-2.53475-26.20686,4.18709"/><ellipse class="cls-6" cx="185.00504" cy="233.09712" rx="112" ry="10"/><polygon class="cls-7" points="103.502 236.223 142.481 235.411 142.483 24.426 103.502 43.277 103.502 236.223"/><polygon class="cls-7" points="183.514 236.223 164.848 235.834 144.534 235.411 144.533 54.426 144.533 24.426 164.848 34.25 183.514 43.277 183.514 70.841 183.514 236.223"/><polyline class="cls-8" points="103.502 69.738 143.463 52.911 183.514 69.738"/><polyline class="cls-8" points="183.514 97.241 143.463 82.911 103.502 97.241"/><polyline class="cls-8" points="183.514 124.85 143.315 112.954 104.482 124.453"/><polyline class="cls-8" points="104.482 152.016 143.508 142.9 182.526 152.016"/><polyline class="cls-8" points="104.482 179.58 143.504 172.904 182.519 179.58"/><polyline class="cls-8" points="104.482 207.144 143.463 202.911 183.514 207.26"/><line class="cls-8" x1="164.02328" y1="34.61367" x2="164.02328" y2="234.8958"/><line class="cls-8" x1="123.14773" y1="233.3958" x2="122.9929" y2="33.85105"/><polygon class="cls-9" points="210.165 277.085 249.145 276.273 249.146 65.288 210.165 84.139 210.165 277.085"/><polygon class="cls-9" points="290.177 277.085 271.512 276.696 251.198 276.273 251.197 95.288 251.197 65.288 271.512 75.113 290.177 84.139 290.177 111.703 290.177 277.085"/><polyline class="cls-8" points="210.165 110.6 250.127 93.773 290.177 110.6"/><polyline class="cls-8" points="290.177 138.103 250.127 123.773 210.165 138.103"/><polyline class="cls-8" points="290.177 165.712 249.979 153.816 211.146 165.315"/><polyline class="cls-8" points="211.146 192.878 250.171 183.762 289.19 192.878"/><polyline class="cls-8" points="211.146 220.442 250.168 213.766 289.183 220.442"/><line class="cls-8" x1="270.68699" y1="75.4758" x2="270.68699" y2="275.75793"/><line class="cls-8" x1="229.81145" y1="274.25793" x2="229.65662" y2="74.71319"/><polygon class="cls-10" points="155.486 275.976 194.466 275.321 194.467 105.066 155.486 120.278 155.486 275.976"/><polygon class="cls-10" points="235.498 275.976 216.833 275.663 196.519 275.321 196.518 129.275 196.517 105.066 216.833 112.994 235.498 120.278 235.498 142.521 235.498 275.976"/><polyline class="cls-11" points="155.486 141.631 195.448 128.052 235.498 141.631"/><polyline class="cls-11" points="235.498 163.824 195.448 152.261 155.486 163.824"/><polyline class="cls-11" points="235.498 186.103 195.3 176.504 156.467 185.783"/><polyline class="cls-11" points="156.467 208.026 195.492 200.669 234.511 208.026"/><polyline class="cls-11" points="156.467 230.268 195.489 224.881 234.504 230.268"/><line class="cls-11" x1="216.00784" y1="113.28729" x2="216.00784" y2="274.90538"/><line class="cls-11" x1="175.13229" y1="273.69495" x2="174.97746" y2="112.6719"/><path class="cls-12" d="M115.976,236.96511s24.39322,34.85061-70.82894,41.77361-18.22956-76.16658,49.75739-51.72059l21.07155,9.947"/><path class="cls-13" d="M267.78987,240.321s-24.29382,35.6533,70.9868,43.04828,17.99873-78.03043-49.93817-53.1803Z"/><path class="cls-14" d="M208.43319,258.01581s-3.09927,49.90844,80.59109,52.22178-22.78286-106.411-67.81958-67.53823Z"/><path class="cls-14" d="M155.44033,237.2452c-45.03672-38.87272-151.50995,69.85158-67.81958,67.53823s80.59109-52.22177,80.59109-52.22177Z"/><path class="cls-1" d="M152.51009,474.25918s15.62712-53.63906,29.56483-65.04264,19.42832-7.18,29.14248,0l3.29155,2.45595,1.16028-1.98906,10.01131,7.09512,2.59283-2.49312,5.48486,3.19119.39889-1.097,6.38238,3.989v-3.49036l2.79228,1.097,9.47384,7.18017,1.19669-2.79229,9.67328,6.18292s-.89752-2.99173,0-2.49311,5.086,2.892,5.086,2.892l3.39063,2.79229.7978-1.39614,9.17466,6.38237.59835-1.89477,15.0584,8.87549v-1.8366l13.17878,5.02,6.45027,3.44015.7151-1.39756,2.61755,1.82758,1.27592.09091.608.81014,1.1777-.15361,1.58733.87047s40.05933,10.01887,39.9192,6.5368c0,0-43.84342-28.7723-46.17279-37.20237l2.46926-1.15091-5.19993-3.48169-5.76228-4.31371,1.96081-.63026s-6.3026-3.6415-8.40346-4.69193l3.862-1.59488-7.98612-4.19161v-1.67664l-10.037-4.15166s-.6524-1.3048,0-1.3048a6.88723,6.88723,0,0,0,2.13514-.88964,44.7508,44.7508,0,0,0-10.08259-3.38063l2.78754-2.25376-12.11225-4.71754s.77838-2.80217,1.86811-3.347a17.6033,17.6033,0,0,0-7.706-2.02379l3.2692-3.11352-10.27462-2.56866.31135-2.88-6.84975-1.55676.31135-3.73623H244.67s-1.40108-3.42487,0-4.59244l-8.48151-.3109-1.79311-3.26965-.85622,1.16757-6.84975-1.16757V353.0793l-7.23575-.24843s-1.71562-2.00888-.62589-3.02077c0,0-7.718,1.29658-10.98116-.36361,0,0-8.04721,1.247-8.81766,1.247s-21.41433,12.43229-7.47183,28.47932c0,0,3.28833,4.07752-2.36759,11.18031,0,0-12.75871-5.52439-13.811-5.12979s-8.54965-4.60366,8.94424,8.81271c0,0-1.70993,6.83972-3.15679,4.34059l-3.28832,8.28658s-10.65418,9.99651-22.62369,41.56444"/><path class="cls-1" d="M184.32275,394.036s10.09174,6.29645,18.26494,9.52758"/><path class="cls-1" d="M190.91623,391.51844l8.45989-6.58138s5.71541-32.04092,8.65971-29.09662"/><path class="cls-1" d="M193.45522,366.23209c-1.41784,9.0061,5.9209,18.705,5.9209,18.705l6.235-1.03916,6.38347.7344,4.00818-1.77357,8.83763.99727,8.47326.397,15.2508,1.71268"/><path class="cls-1" d="M233.31365,384.253s6.07032-11.43956,10.40018-12.65192"/><path class="cls-1" d="M216.00276,382.85873s4.67624-15.24109,14.8947-16.62664"/><path class="cls-1" d="M205.61111,383.8979s8.31332-20.09053,16.973-24.76677"/><path class="cls-1" d="M260.86005,400.69773c-8.8329-.51958-10.56484,1.21236-10.56484,1.21236l-19.39775-4.32985c-15.39907-5.61425-31.43842-3.7015-33.7229-3.38846a.07652.07652,0,0,0-.01943.14769c3.81933,1.603,48.84452,20.54389,47.53947,22.05636"/><path class="cls-1" d="M250.29521,401.91009s110.45552,61.98165,115.016,57.0024"/><path class="cls-1" d="M209.68384,399.66975a17.16115,17.16115,0,0,1,12.9003-.87"/><path class="cls-1" d="M228.64593,396.81745s6.84351-4.75746,12.93076-2.78144"/><path class="cls-1" d="M197.28162,394.39287s-8.44955-4.64025-8.82016-4.1297"/><path class="cls-15" d="M179.11428,311.37349c4.47877,3.85628,12.25572,3.67944,16.52268-.3247,26.01776-24.41527,34.0339-49.22421,22.91452-60.8874-5.95168-6.24277-17.48014-8.81841-20.25675-9.43875-16.12275-3.6021-35.01818-.432-42.89664,6.60713C143.206,258.2229,149.25069,285.66054,179.11428,311.37349Z"/><path class="cls-1" d="M157.44842,1032.79968s15.62713-53.63905,29.56483-65.04263,19.42833-7.18,29.14249,0l3.29154,2.45594,1.16028-1.98906,10.01131,7.09512,2.59284-2.49312,5.48485,3.19119.3989-1.097,6.38237,3.989v-3.49036l2.79229,1.097,9.47383,7.18017,1.19669-2.79229,9.67329,6.18293s-.89752-2.99174,0-2.49312,5.086,2.892,5.086,2.892l3.39063,2.79229.7978-1.39614L287.063,995.264l.59835-1.89477,15.05841,8.87549v-1.83659l13.17877,5.02,6.45028,3.44015.71509-1.39756,2.61755,1.82758,1.27592.09091.608.81014,1.1777-.15361,1.58733.87047s40.05933,10.01887,39.9192,6.5368c0,0-43.84342-28.77229-46.17279-37.20237l2.46926-1.15091-5.19993-3.48169-5.76228-4.31371,1.96081-.63026s-6.30259-3.6415-8.40346-4.69193l3.862-1.59487-7.98612-4.19162V958.519l-10.037-4.15165s-.6524-1.30481,0-1.30481a6.88712,6.88712,0,0,0,2.13514-.88964,44.75059,44.75059,0,0,0-10.08259-3.38063l2.78754-2.25376L277.70781,941.821s.77838-2.80217,1.86812-3.347a17.60337,17.60337,0,0,0-7.706-2.02379l3.2692-3.11352L264.86454,930.768l.31135-2.88-6.84975-1.55676.31136-3.73623h-9.02922s-1.40108-3.42487,0-4.59244l-8.48151-.31089-1.79311-3.26966-.85622,1.16757L231.6277,914.422V911.6198l-7.23576-.24842s-1.71562-2.00888-.62589-3.02078c0,0-7.718,1.29658-10.98116-.3636,0,0-8.0472,1.247-8.81766,1.247s-21.41433,12.43229-7.47183,28.47932c0,0,3.28833,4.07752-2.36759,11.18031,0,0-12.75871-5.52439-13.811-5.12979s-8.54965-4.60366,8.94425,8.81271c0,0-1.70993,6.83972-3.1568,4.34059l-3.28832,8.28658s-10.65418,9.99651-22.62369,41.56444"/><path class="cls-1" d="M189.26109,952.57651s10.09173,6.29645,18.26493,9.52758"/><path class="cls-1" d="M195.85456,950.05894l8.45989-6.58138s5.71541-32.04092,8.65971-29.09662"/><path class="cls-1" d="M198.39355,924.77259c-1.41784,9.0061,5.9209,18.705,5.9209,18.705l6.235-1.03916,6.38347.7344,4.00818-1.77357,8.83763.99727,8.47326.397,15.2508,1.71268"/><path class="cls-1" d="M238.252,942.79353s6.07033-11.43956,10.40018-12.65192"/><path class="cls-1" d="M220.94109,941.39923s4.67624-15.24108,14.8947-16.62664"/><path class="cls-1" d="M210.54944,942.4384s8.31332-20.09053,16.973-24.76677"/><path class="cls-1" d="M265.79838,959.23823c-8.8329-.51958-10.56484,1.21236-10.56484,1.21236l-19.39775-4.32985c-15.39907-5.61425-31.43842-3.7015-33.72289-3.38846a.07652.07652,0,0,0-.01944.14769c3.81933,1.603,48.84452,20.54389,47.53947,22.05636"/><path class="cls-1" d="M255.23354,960.45059s110.45552,61.98166,115.016,57.0024"/><path class="cls-1" d="M214.62217,958.21025a17.16116,17.16116,0,0,1,12.9003-.87"/><path class="cls-1" d="M233.58427,955.358s6.8435-4.75746,12.93075-2.78144"/><path class="cls-1" d="M202.22,952.93337s-8.44955-4.64025-8.82016-4.1297"/><path class="cls-16" d="M148.10363,3.83374c-.30749-2.84868-7.22976-2.06182-15.39826,1.72823-8.09964,3.75812-14.3703,9.05569-14.06749,11.86105s7.06815,2.09087,15.17246-1.6241C141.98353,12.05237,148.41111,6.68243,148.10363,3.83374Z"/><polygon points="131.475 20.063 133.007 19.609 134.255 22.219 137.49 22.219 140.1 18.247 139.816 16.772 140.838 15.977 141.973 15.977 141.973 16.488 140.995 16.788 141.292 17.282 141.292 17.916 142.937 18.247 142.937 18.814 141.859 22.911 140.611 22.911 140.27 24.426 133.972 24.426 132.171 24.426 131.475 20.063"/><polyline points="133.371 25.283 133.972 24.426 138.341 24.426 138.965 25.283 133.371 27.723"/><polyline points="129.532 17.269 129.069 4.603 129.069 3.977 129.946 3.699 130.477 3.278 142.143 10.274 142.483 10.014 130.84 2.261 130.54 1.743 129.941 1.743 129.205 0.327 129.069 0 128.781 0.092 128.781 0.354 127.598 0.899 127.462 0.599 127.268 0.705 128.122 2.492 128.021 2.572 128.021 2.482 127.695 2.532 127.321 2.829 127.417 3.157 127.624 3.092 127.814 3.555 127.854 3.713 126.603 13.632 126.911 13.771 128.38 4.518 129.249 17.269"/><polyline points="137.115 7.812 136.896 8.233 130.477 3.278 130.681 3.179"/><path d="M130.9641,3.68424c.01828.09948-.42322.38632-.98573.64052-.56209.254-1.03225.37926-1.0505.27992s.42228-.38575.98434-.63989C130.4747,3.71045,130.94581,3.58477,130.9641,3.68424Z"/><polyline points="130.477 3.741 130.31 3.41 130.101 3.576 130.289 3.834"/><polyline points="129.912 3.965 129.833 3.718 129.723 3.769 129.818 4.008"/><polyline points="129.511 4.325 129.369 3.863 129.511 3.818 129.654 4.292"/><polyline points="129.369 4.273 129.246 3.863 129.369 3.863 129.487 4.244"/></g></g></svg>