<?xml version="1.0" standalone="no"?>
<!DOCTYPE svg PUBLIC "-//W3C//DTD SVG 20010904//EN"
 "http://www.w3.org/TR/2001/REC-SVG-20010904/DTD/svg10.dtd">
<svg version="1.0" xmlns="http://www.w3.org/2000/svg"
 width="700.000000pt" height="700.000000pt" viewBox="0 0 700.000000 700.000000"
 preserveAspectRatio="xMidYMid meet">
<metadata>
Created by potrace 1.14, written by Peter Selinger 2001-2017
</metadata>
<g transform="translate(0.000000,700.000000) scale(0.100000,-0.100000)"
fill="#000000" stroke="none">
<path d="M5165 6269 c-16 -5 -664 -184 -1440 -398 l-1410 -389 -6 -133 c-4
-74 -7 -561 -8 -1082 l-1 -949 -32 21 c-138 91 -272 132 -428 132 -397 0 -711
-296 -736 -695 -14 -207 64 -403 221 -561 65 -65 98 -90 175 -128 131 -65 200
-82 340 -81 183 0 328 51 469 165 l63 52 -45 44 -45 45 -55 -45 c-110 -89
-243 -137 -384 -137 -110 0 -172 14 -273 62 -159 76 -281 228 -326 408 -22 89
-15 251 16 339 80 227 299 392 540 408 180 11 345 -53 480 -187 89 -88 119
-101 174 -75 70 33 66 -26 66 1057 l-1 973 1203 332 c662 182 1213 334 1226
338 l22 5 0 -1200 0 -1201 -46 31 c-63 44 -156 85 -241 105 -113 27 -302 17
-410 -22 -245 -89 -414 -277 -474 -530 -17 -72 -20 -108 -16 -198 8 -188 71
-336 199 -470 150 -159 332 -235 561 -235 311 0 557 -192 623 -486 70 -314
-134 -639 -451 -719 -76 -19 -214 -19 -290 0 -220 56 -394 230 -450 450 -8 32
-15 79 -15 102 l0 43 -66 0 -66 0 7 -67 c21 -198 116 -378 264 -502 71 -58
199 -124 291 -148 88 -24 271 -23 360 1 247 67 435 242 515 477 119 348 -38
729 -367 894 -107 54 -193 73 -373 84 -100 6 -159 15 -205 31 -283 96 -457
388 -406 680 52 291 309 510 601 510 177 0 366 -89 456 -215 37 -51 73 -75
114 -75 36 0 78 24 93 52 8 17 13 390 17 1488 2 806 7 1498 11 1538 3 39 2 72
-3 71 -4 0 -21 -5 -38 -10z"/>
<path d="M259 4824 c-5 -15 -8 -29 -5 -31 2 -2 8 10 14 26 13 38 5 41 -9 5z"/>
<path d="M220 4724 c-6 -14 -10 -30 -10 -36 0 -5 -6 -24 -14 -41 -16 -37 -44
-127 -75 -242 -22 -82 -29 -112 -56 -270 -9 -49 -20 -103 -25 -120 -17 -56
-25 -240 -24 -540 1 -264 6 -343 27 -445 3 -14 11 -68 17 -120 7 -52 16 -99
20 -105 4 -5 11 -30 15 -55 7 -49 81 -323 95 -355 5 -11 12 -31 15 -45 8 -30
53 -147 66 -169 5 -9 20 -44 34 -79 28 -68 66 -149 106 -222 41 -75 141 -244
158 -266 18 -24 27 -38 73 -109 18 -27 40 -57 48 -66 8 -8 40 -48 70 -88 123
-161 285 -327 505 -516 32 -27 67 -57 79 -65 28 -19 43 -31 67 -53 10 -9 21
-17 23 -17 3 0 35 -20 73 -45 37 -25 75 -50 83 -55 8 -5 40 -27 70 -47 31 -21
81 -51 113 -68 31 -16 57 -33 57 -37 0 -5 5 -8 11 -8 16 0 203 -92 207 -102 2
-4 10 -8 18 -8 8 0 35 -9 60 -20 24 -11 58 -23 74 -27 17 -3 30 -9 30 -13 0
-4 19 -13 43 -20 23 -7 56 -18 72 -25 17 -8 47 -16 68 -20 20 -4 37 -10 37
-14 0 -4 30 -13 68 -21 37 -7 69 -16 72 -19 6 -7 208 -52 290 -64 19 -3 46 -8
60 -12 14 -3 75 -10 135 -16 61 -5 124 -12 140 -16 39 -8 501 -8 540 0 17 3
57 8 90 11 33 3 87 10 120 15 177 28 211 33 225 38 24 9 31 11 110 27 41 8
107 24 145 36 39 12 94 28 123 36 30 8 61 18 71 23 10 6 46 20 82 32 35 11 84
30 109 41 73 32 375 181 380 188 3 3 43 28 90 55 47 27 91 55 98 62 7 7 17 13
22 13 5 0 15 6 22 13 7 6 33 25 58 42 25 16 52 36 62 45 9 8 31 26 49 40 18
14 41 33 50 42 10 9 19 14 22 12 3 -3 14 6 25 20 10 14 23 22 27 18 5 -4 5 -1
1 6 -6 10 -15 7 -39 -13 -56 -45 -279 -190 -392 -255 -151 -87 -271 -146 -460
-225 -203 -86 -558 -177 -860 -221 -142 -21 -630 -30 -770 -15 -363 39 -547
82 -920 211 -262 92 -662 318 -905 514 -288 231 -547 511 -737 796 -183 275
-358 640 -423 880 -74 281 -93 359 -115 483 -58 340 -63 843 -10 1142 8 44 19
105 24 135 20 114 80 361 91 375 11 13 24 85 16 85 -4 0 -11 -12 -16 -26z"/>
<path d="M4462 2823 l3 -468 101 0 c94 1 105 3 178 38 239 114 339 394 226
633 -80 166 -237 264 -425 264 l-85 0 2 -467z"/>
<path d="M1793 3213 l-23 -4 0 -464 0 -464 38 -7 c57 -11 173 10 246 44 167
78 266 238 266 428 0 228 -149 413 -369 460 -65 13 -113 16 -158 7z"/>
<path d="M4503 1913 c-10 -4 -13 -107 -13 -468 l0 -464 45 -6 c24 -4 75 -2
112 4 153 26 282 125 350 268 33 68 38 88 41 171 5 116 -15 198 -68 280 -71
110 -185 188 -309 212 -56 10 -137 12 -158 3z"/>
<path d="M5864 978 l-29 -33 33 29 c17 17 32 31 32 33 0 8 -8 1 -36 -29z"/>
<path d="M5809 933 c-13 -16 -12 -17 4 -4 9 7 17 15 17 17 0 8 -8 3 -21 -13z"/>
<path d="M5754 889 c-19 -22 -19 -22 3 -10 24 12 39 31 25 31 -5 0 -17 -10
-28 -21z"/>
</g>
</svg>
